<?xml version="1.0" encoding="utf-8"?>
<!-- Generator: Adobe Illustrator 25.4.1, SVG Export Plug-In . SVG Version: 6.00 Build 0)  -->
<svg version="1.1" id="Ebene_1" xmlns="http://www.w3.org/2000/svg" xmlns:xlink="http://www.w3.org/1999/xlink" x="0px" y="0px"
	 viewBox="0 0 369 50" style="enable-background:new 0 0 369 50;" xml:space="preserve">
<style type="text/css">
	.st0{clip-path:url(#SVGID_00000049922929678668492100000011780165037132213402_);}
	.st1{clip-path:url(#SVGID_00000024709749425889718280000018150813037987355572_);}
</style>
<g>
	<defs>
		<rect id="SVGID_1_" x="21" y="11.4" width="327" height="26.9"/>
	</defs>
	<clipPath id="SVGID_00000034807850943918615190000013213928399326377372_">
		<use xlink:href="#SVGID_1_"  style="overflow:visible;"/>
	</clipPath>
	<path style="clip-path:url(#SVGID_00000034807850943918615190000013213928399326377372_);" d="M32.6,38c-0.5,0-0.8-0.2-1-0.7
		L21.1,13.4c-0.2-0.4-0.2-0.7,0-1c0.2-0.3,0.4-0.4,0.8-0.5c0.6-0.1,0.9,0.1,1.2,0.6l10.1,23h-0.8l10.1-23c0.2-0.5,0.6-0.7,1.2-0.6
		c0.4,0.1,0.6,0.2,0.8,0.5c0.2,0.3,0.2,0.6,0,1L33.9,37.3c-0.2,0.5-0.5,0.7-1,0.7H32.6"/>
</g>
<path d="M47.7,29.2v1.5c0,1.9,0.4,3.2,1.1,4c0.8,0.8,2.1,1.1,4,1.1h3.3c1.7,0,2.9-0.2,3.7-0.7c0.8-0.4,1.2-1.2,1.4-2.3
	c0.1-0.3,0.2-0.6,0.3-0.8c0.2-0.2,0.4-0.3,0.8-0.3c0.4,0,0.6,0.1,0.8,0.3c0.2,0.2,0.3,0.5,0.2,0.8c-0.2,1.7-0.9,3-2,3.8
	c-1.2,0.8-2.9,1.2-5.2,1.2h-3.3c-2.5,0-4.4-0.6-5.6-1.8c-1.2-1.2-1.8-3-1.8-5.5v-4.6c0-2.6,0.6-4.4,1.8-5.6c1.2-1.2,3-1.7,5.6-1.7
	h3.3c2.5,0,4.4,0.6,5.5,1.8c1.2,1.2,1.8,3,1.8,5.5v2c0,0.7-0.4,1.1-1.1,1.1H47.7 M52.9,21c-1.9,0-3.3,0.3-4,1.1
	c-0.8,0.8-1.1,2.1-1.1,4.1v1h13.7v-1c0-1.9-0.4-3.3-1.1-4c-0.8-0.8-2.1-1.1-4-1.1H52.9z"/>
<path d="M74.7,38c-1.7,0-2.9-0.4-3.8-1.1c-0.9-0.7-1.4-1.8-1.6-3.3c0-0.4,0-0.6,0.2-0.8c0.2-0.2,0.5-0.3,0.8-0.3
	c0.3,0,0.6,0.1,0.8,0.3c0.2,0.2,0.3,0.4,0.3,0.8c0.1,0.8,0.4,1.4,0.9,1.8c0.5,0.3,1.3,0.5,2.3,0.5h6.7c1.3,0,2.1-0.2,2.6-0.7
	c0.5-0.5,0.7-1.3,0.7-2.6c0-1.3-0.2-2.1-0.7-2.6c-0.5-0.5-1.3-0.7-2.6-0.7h-6.6c-1.8,0-3.1-0.4-3.9-1.3c-0.9-0.8-1.3-2.1-1.3-3.9
	c0-1.8,0.4-3.1,1.3-4c0.9-0.8,2.2-1.3,3.9-1.3h6.4c3.1,0,4.8,1.4,5.1,4.1c0.1,0.4,0,0.6-0.2,0.8c-0.2,0.2-0.5,0.3-0.8,0.3
	c-0.3,0-0.6-0.1-0.8-0.3c-0.2-0.2-0.3-0.4-0.4-0.8c-0.1-0.8-0.4-1.3-0.8-1.6c-0.5-0.3-1.2-0.4-2.1-0.4h-6.4c-1.2,0-2,0.2-2.4,0.6
	C72,22,71.7,22.8,71.7,24c0,1.1,0.2,1.9,0.7,2.4c0.4,0.4,1.3,0.7,2.4,0.7h6.6c1.9,0,3.2,0.4,4.1,1.3c0.9,0.9,1.3,2.3,1.3,4.1
	c0,1.9-0.4,3.2-1.3,4.1c-0.9,0.9-2.3,1.3-4.1,1.3H74.7"/>
<path d="M101,38c-2.5,0-4.3-0.6-5.5-1.7c-1.1-1.1-1.7-3-1.7-5.4V21h-2.4c-0.7,0-1.1-0.4-1.1-1.1c0-0.7,0.4-1.1,1.1-1.1h2.4v-4.4
	c0-0.7,0.4-1.1,1.1-1.1c0.7,0,1.1,0.4,1.1,1.1v4.4h5.1c0.7,0,1.1,0.4,1.1,1.1c0,0.7-0.4,1.1-1.1,1.1H96v9.9c0,1.9,0.4,3.2,1.1,3.9
	c0.7,0.7,2.1,1.1,3.9,1.1c0.4,0,0.7,0.1,0.8,0.3c0.2,0.2,0.3,0.4,0.3,0.8C102.1,37.6,101.8,38,101,38"/>
<path d="M112.2,38c-2.1,0-3.7-0.5-4.6-1.5c-1-1-1.5-2.5-1.5-4.6s0.5-3.7,1.5-4.6c1-1,2.5-1.5,4.6-1.5h9.2c0-1.8-0.4-3-1.2-3.7
	c-0.8-0.7-2.1-1.1-4-1.1h-2.4c-1.7,0-3,0.2-3.8,0.5c-0.8,0.4-1.3,1-1.5,1.9c-0.1,0.3-0.2,0.6-0.4,0.7c-0.2,0.2-0.4,0.2-0.7,0.2
	c-0.4,0-0.6-0.1-0.8-0.3c-0.2-0.2-0.3-0.5-0.2-0.8c0.2-1.5,0.9-2.7,2.1-3.4c1.2-0.7,3-1.1,5.3-1.1h2.4c2.5,0,4.4,0.6,5.5,1.8
	c1.2,1.2,1.8,3,1.8,5.5v10.8c0,0.7-0.4,1.1-1.1,1.1c-0.7,0-1.1-0.4-1.1-1.1v-2c-1.3,2.1-3.6,3.1-7,3.1H112.2 M112.2,35.9h2.3
	c1.3,0,2.5-0.1,3.5-0.4c1-0.3,1.8-0.8,2.4-1.4c0.6-0.6,1-1.5,1.1-2.6v-3.5h-9.2c-1.5,0-2.5,0.3-3.1,0.9c-0.6,0.6-0.9,1.6-0.9,3.1
	c0,1.5,0.3,2.5,0.9,3.1C109.7,35.6,110.7,35.9,112.2,35.9z"/>
<path d="M152.3,18.8c2.2,0,3.7,0.6,4.7,1.7c0.9,1.1,1.4,2.9,1.4,5.5v11c0,0.7-0.4,1.1-1.1,1.1c-0.7,0-1.1-0.4-1.1-1.1v-11
	c0-1.8-0.3-3.1-0.9-3.9c-0.6-0.8-1.6-1.2-3-1.2h-1.7c-1.8,0-3,0.4-3.8,1.2c-0.8,0.8-1.1,2.1-1.1,3.9v11c0,0.7-0.4,1.1-1.1,1.1
	c-0.7,0-1.1-0.4-1.1-1.1v-11c0-1.8-0.3-3.1-0.9-3.9c-0.6-0.8-1.6-1.2-3-1.2h-1.7c-1.8,0-3,0.4-3.8,1.2c-0.8,0.8-1.1,2.1-1.1,3.9v11
	c0,0.7-0.4,1.1-1.1,1.1c-0.7,0-1.1-0.4-1.1-1.1V19.9c0-0.7,0.4-1.1,1.1-1.1c0.7,0,1.1,0.4,1.1,1.1v1.6c0.6-1,1.3-1.6,2.1-2.1
	c0.8-0.4,1.9-0.6,3.1-0.6h1.4c1.4,0,2.6,0.2,3.4,0.7c0.9,0.5,1.5,1.3,2,2.4c0.6-1.1,1.3-1.9,2.2-2.4c0.9-0.5,2-0.7,3.4-0.7H152.3"/>
<path d="M170.5,38c-2.1,0-3.7-0.5-4.6-1.5c-1-1-1.5-2.5-1.5-4.6s0.5-3.7,1.5-4.6c1-1,2.5-1.5,4.6-1.5h9.2c0-1.8-0.4-3-1.2-3.7
	c-0.8-0.7-2.1-1.1-4-1.1h-2.4c-1.7,0-3,0.2-3.8,0.5c-0.8,0.4-1.3,1-1.5,1.9c-0.1,0.3-0.2,0.6-0.4,0.7c-0.2,0.2-0.4,0.2-0.7,0.2
	c-0.4,0-0.6-0.1-0.8-0.3c-0.2-0.2-0.3-0.5-0.2-0.8c0.2-1.5,0.9-2.7,2.1-3.4c1.2-0.7,3-1.1,5.3-1.1h2.4c2.5,0,4.4,0.6,5.5,1.8
	c1.2,1.2,1.8,3,1.8,5.5v10.8c0,0.7-0.4,1.1-1.1,1.1c-0.7,0-1.1-0.4-1.1-1.1v-2c-1.3,2.1-3.6,3.1-7,3.1H170.5 M170.5,35.9h2.3
	c1.3,0,2.5-0.1,3.5-0.4c1-0.3,1.8-0.8,2.4-1.4c0.6-0.6,1-1.5,1.1-2.6v-3.5h-9.2c-1.5,0-2.5,0.3-3.1,0.9c-0.6,0.6-0.9,1.6-0.9,3.1
	c0,1.5,0.3,2.5,0.9,3.1C167.9,35.6,169,35.9,170.5,35.9z"/>
<path d="M196.9,38c-2.5,0-4.3-0.6-5.5-1.7c-1.1-1.1-1.7-3-1.7-5.4V21h-2.4c-0.7,0-1.1-0.4-1.1-1.1c0-0.7,0.4-1.1,1.1-1.1h2.4v-4.4
	c0-0.7,0.4-1.1,1.1-1.1c0.7,0,1.1,0.4,1.1,1.1v4.4h5.1c0.7,0,1.1,0.4,1.1,1.1c0,0.7-0.4,1.1-1.1,1.1h-5.1v9.9c0,1.9,0.4,3.2,1.1,3.9
	c0.7,0.7,2.1,1.1,3.9,1.1c0.4,0,0.7,0.1,0.8,0.3c0.2,0.2,0.3,0.4,0.3,0.8C198,37.6,197.6,38,196.9,38"/>
<path d="M204.2,15.1c-0.9,0-1.4-0.5-1.4-1.4v-0.9c0-0.9,0.5-1.4,1.4-1.4h0.9c0.9,0,1.4,0.5,1.4,1.4v0.9c0,1-0.5,1.4-1.4,1.4H204.2
	 M204.7,38c-0.7,0-1.1-0.4-1.1-1.1v-17c0-0.7,0.4-1.1,1.1-1.1c0.7,0,1.1,0.4,1.1,1.1v17C205.7,37.6,205.4,38,204.7,38z"/>
<path d="M220.1,38c-2.5,0-4.4-0.6-5.6-1.8c-1.2-1.2-1.8-3-1.8-5.6v-4.6c0-2.5,0.6-4.4,1.8-5.5c1.2-1.2,3-1.7,5.6-1.7h3.3
	c2,0,3.5,0.3,4.6,1c1,0.7,1.7,1.7,1.9,3.2c0,0.4,0,0.6-0.2,0.8c-0.2,0.2-0.5,0.3-0.8,0.3c-0.3,0-0.6-0.1-0.7-0.3
	c-0.2-0.2-0.3-0.4-0.4-0.7c-0.1-0.8-0.5-1.3-1.2-1.7c-0.6-0.3-1.7-0.5-3.1-0.5h-3.3c-1.9,0-3.3,0.3-4,1.1c-0.8,0.8-1.1,2.1-1.1,4
	v4.6c0,1.9,0.4,3.3,1.1,4c0.8,0.8,2.1,1.1,4,1.1h3.3c1.4,0,2.4-0.2,3.1-0.5c0.6-0.3,1-0.9,1.2-1.7c0.1-0.3,0.2-0.6,0.4-0.7
	c0.2-0.2,0.4-0.3,0.7-0.3c0.4,0,0.6,0.1,0.8,0.3c0.2,0.2,0.3,0.5,0.2,0.8c-0.2,1.4-0.8,2.5-1.9,3.2c-1,0.7-2.6,1-4.6,1H220.1"/>
<path d="M261.6,23.7h-6.8v-5.9c0-0.7-0.3-1-1-1c-0.7,0-1,0.3-1,1v5.9h-6c-0.7,0-1,0.3-1,1c0,0.7,0.3,1,1,1h6v6.9c0,0.7,0.3,1,1,1
	c0.7,0,1-0.3,1-1v-6.9h6.8c0.7,0,1-0.3,1-1C262.6,24.1,262.3,23.7,261.6,23.7"/>
<g>
	<defs>
		<rect id="SVGID_00000150068630846982048380000006787376037819825284_" x="21" y="11.4" width="327" height="26.9"/>
	</defs>
	<clipPath id="SVGID_00000132067373844241984920000001820815156525475474_">
		<use xlink:href="#SVGID_00000150068630846982048380000006787376037819825284_"  style="overflow:visible;"/>
	</clipPath>
	<path style="clip-path:url(#SVGID_00000132067373844241984920000001820815156525475474_);" d="M287.5,38c-2.9,0-5.1-0.7-6.4-2
		c-1.4-1.4-2-3.5-2-6.4v-9.2c0-3,0.7-5.1,2-6.5c1.3-1.3,3.5-2,6.4-2h4.9c2.5,0,4.3,0.5,5.6,1.6c1.2,1,1.9,2.7,2,5
		c0,0.4,0,0.6-0.2,0.8c-0.2,0.2-0.5,0.3-0.8,0.3c-0.7,0-1-0.4-1.1-1.1c-0.1-1.7-0.6-2.8-1.4-3.5c-0.8-0.6-2.2-1-4.1-1h-4.9
		c-1.6,0-2.8,0.2-3.7,0.6c-0.9,0.4-1.6,1.1-2,2c-0.4,0.9-0.6,2.2-0.6,3.7v9.2c0,1.6,0.2,2.8,0.6,3.7c0.4,0.9,1.1,1.6,2,2
		c0.9,0.4,2.2,0.6,3.7,0.6h4.9c1.9,0,3.2-0.3,4.1-1c0.8-0.6,1.3-1.8,1.4-3.5c0.1-0.7,0.4-1.1,1.1-1.1c0.4,0,0.6,0.1,0.8,0.3
		c0.2,0.2,0.3,0.5,0.2,0.8c-0.1,2.3-0.8,3.9-2,5c-1.2,1-3.1,1.6-5.6,1.6H287.5"/>
	<path style="clip-path:url(#SVGID_00000132067373844241984920000001820815156525475474_);" d="M324.3,38c-0.3,0.2-0.6,0.2-0.8,0.2
		c-0.2-0.1-0.5-0.2-0.6-0.5l-6.7-10.6h-7.4v9.8c0,0.7-0.4,1.1-1.1,1.1c-0.7,0-1.1-0.4-1.1-1.1v-24c0-0.7,0.4-1.1,1.1-1.1h9.5
		c2.3,0,4.1,0.6,5.2,1.8c1.2,1.2,1.8,2.9,1.8,5.3v1.2c0,2-0.5,3.6-1.4,4.8c-0.9,1.2-2.3,1.9-4.1,2.1l6,9.5
		C325,37.2,324.9,37.7,324.3,38 M308.7,25h8.4c1.7,0,2.9-0.4,3.7-1.2c0.8-0.8,1.2-2,1.2-3.7v-1.2c0-1.7-0.4-3-1.2-3.7
		c-0.8-0.8-2-1.2-3.7-1.2h-8.4V25z"/>
</g>
<path d="M331.7,38c-0.7,0-1.1-0.4-1.1-1.1v-24c0-0.7,0.4-1.1,1.1-1.1h15.2c0.7,0,1.1,0.4,1.1,1.1c0,0.7-0.4,1.1-1.1,1.1h-14.1v9.7
	h9.4c0.7,0,1.1,0.4,1.1,1.1c0,0.7-0.4,1.1-1.1,1.1h-9.4v10h14.1c0.7,0,1.1,0.4,1.1,1.1c0,0.7-0.4,1.1-1.1,1.1H331.7"/>
</svg>
